
<svg width="70" height="24" viewBox="0 0 70 24" fill="none" xmlns="http://www.w3.org/2000/svg">
  <path d="M12 0C5.373 0 0 5.373 0 12s5.373 12 12 12 12-5.373 12-12S18.627 0 12 0zm0 22.141c-5.6 0-10.141-4.541-10.141-10.141S6.4 1.859 12 1.859 22.141 6.4 22.141 12 17.6 22.141 12 22.141z" fill="white"/>
  <path d="M34.651 6.34h2.876v11.32h-2.876V6.34zm20.001 0h2.876v11.32h-2.876V6.34zm-9.419 0c-3.132 0-5.672 2.54-5.672 5.672s2.54 5.672 5.672 5.672 5.672-2.54 5.672-5.672-2.54-5.672-5.672-5.672zm0 8.556c-1.584 0-2.868-1.284-2.868-2.868s1.284-2.868 2.868-2.868 2.868 1.284 2.868 2.868-1.284 2.868-2.868 2.868zm-20.417-8.556c-3.132 0-5.672 2.54-5.672 5.672s2.54 5.672 5.672 5.672 5.672-2.54 5.672-5.672-2.54-5.672-5.672-5.672zm0 8.556c-1.584 0-2.868-1.284-2.868-2.868s1.284-2.868 2.868-2.868 2.868 1.284 2.868 2.868-1.284 2.868-2.868 2.868z" fill="white"/>
</svg>
